<svg width="43" height="38" viewBox="0 0 43 38" fill="none" xmlns="http://www.w3.org/2000/svg">
<path d="M10.5761 38C7.32902 38 4.73139 36.8272 2.78317 34.4815C0.927724 32.042 0 28.8988 0 25.0518C0 19.7975 1.39159 15.0593 4.17476 10.837C7.0507 6.52098 11.411 2.90864 17.2557 0L18.7864 2.25185C16.0032 3.94074 13.452 6.33333 11.1327 9.42963C8.90615 12.4321 7.79288 15.4815 7.79288 18.5778C7.79288 19.4222 8.02481 20.1259 8.48867 20.6889C8.95254 21.158 9.64833 21.3926 10.5761 21.3926C12.8954 21.3926 14.8436 22.237 16.4207 23.9259C18.0906 25.521 18.9256 27.4914 18.9256 29.837C18.9256 32.1827 18.0906 34.1531 16.4207 35.7482C14.8436 37.2494 12.8954 38 10.5761 38ZM34.6505 38C31.4035 38 28.8058 36.8272 26.8576 34.4815C25.0022 32.042 24.0744 28.8988 24.0744 25.0518C24.0744 19.7975 25.466 15.0593 28.2492 10.837C31.1251 6.52098 35.4854 2.90864 41.3301 0L42.8608 2.25185C40.0777 3.94074 37.5264 6.33333 35.2071 9.42963C32.9806 12.4321 31.8673 15.4815 31.8673 18.5778C31.8673 19.4222 32.0992 20.1259 32.5631 20.6889C33.027 21.158 33.7228 21.3926 34.6505 21.3926C36.9698 21.3926 38.918 22.237 40.4951 23.9259C42.165 25.521 43 27.4914 43 29.837C43 32.1827 42.165 34.1531 40.4951 35.7482C38.918 37.2494 36.9698 38 34.6505 38Z" fill="#006EF5"/>
</svg>
